<svg width="34" height="34" viewBox="0 0 34 34" fill="none" xmlns="http://www.w3.org/2000/svg">
<path d="M15.3333 22H18.6667V25.3334H15.3333V22ZM15.3333 8.66671H18.6667V18.6667H15.3333V8.66671ZM17 0.333374C7.78333 0.333374 0.333328 7.83337 0.333328 17C0.333328 21.4203 2.08928 25.6595 5.21488 28.7852C6.76252 30.3328 8.59984 31.5605 10.6219 32.398C12.644 33.2356 14.8113 33.6667 17 33.6667C21.4203 33.6667 25.6595 31.9108 28.7851 28.7852C31.9107 25.6595 33.6667 21.4203 33.6667 17C33.6667 14.8113 33.2356 12.6441 32.398 10.622C31.5604 8.59989 30.3328 6.76257 28.7851 5.21493C27.2375 3.66728 25.4001 2.43963 23.3781 1.60205C21.356 0.76447 19.1887 0.333374 17 0.333374ZM17 30.3334C13.4638 30.3334 10.0724 28.9286 7.5719 26.4281C5.07142 23.9276 3.66666 20.5363 3.66666 17C3.66666 13.4638 5.07142 10.0724 7.5719 7.57195C10.0724 5.07147 13.4638 3.66671 17 3.66671C20.5362 3.66671 23.9276 5.07147 26.4281 7.57195C28.9286 10.0724 30.3333 13.4638 30.3333 17C30.3333 20.5363 28.9286 23.9276 26.4281 26.4281C23.9276 28.9286 20.5362 30.3334 17 30.3334Z" fill="black"/>
</svg>
